<svg width="72" height="72" viewBox="0 0 72 72" fill="none" xmlns="http://www.w3.org/2000/svg">
<circle cx="52.5" cy="25" r="16.5" fill="url(#paint0_linear_289_288274)"/>
<circle cx="52.5" cy="25" r="16.5" fill="url(#paint1_linear_289_288274)"/>
<path fill-rule="evenodd" clip-rule="evenodd" d="M35.9998 55.2503V55.2502H52.2323C52.2433 55.2502 52.2543 55.25 52.2652 55.2498C52.2934 55.25 52.3215 55.25 52.3497 55.25C59.9903 55.25 66.1843 49.0561 66.1843 41.4154C66.1843 33.7748 59.9903 27.5808 52.3497 27.5808C52.0463 27.5808 51.7452 27.5906 51.4467 27.6098C48.2886 21.6102 41.993 17.5194 34.742 17.5194C25.6029 17.5194 17.9816 24.0179 16.247 32.6461C10.4103 33.0987 5.81519 37.9783 5.81519 43.9311C5.81519 50.1825 10.883 55.2503 17.1344 55.2503H35.9998Z" fill="white"/>
<path fill-rule="evenodd" clip-rule="evenodd" d="M35.9998 55.2503V55.2502H52.2323C52.2433 55.2502 52.2543 55.25 52.2652 55.2498C52.2934 55.25 52.3215 55.25 52.3497 55.25C59.9903 55.25 66.1843 49.0561 66.1843 41.4154C66.1843 33.7748 59.9903 27.5808 52.3497 27.5808C52.0463 27.5808 51.7452 27.5906 51.4467 27.6098C48.2886 21.6102 41.993 17.5194 34.742 17.5194C25.6029 17.5194 17.9816 24.0179 16.247 32.6461C10.4103 33.0987 5.81519 37.9783 5.81519 43.9311C5.81519 50.1825 10.883 55.2503 17.1344 55.2503H35.9998Z" fill="url(#paint2_linear_289_288274)"/>
<path fill-rule="evenodd" clip-rule="evenodd" d="M35.9998 55.2503V55.2502H52.2323C52.2433 55.2502 52.2543 55.25 52.2652 55.2498C52.2934 55.25 52.3215 55.25 52.3497 55.25C59.9903 55.25 66.1843 49.0561 66.1843 41.4154C66.1843 33.7748 59.9903 27.5808 52.3497 27.5808C52.0463 27.5808 51.7452 27.5906 51.4467 27.6098C48.2886 21.6102 41.993 17.5194 34.742 17.5194C25.6029 17.5194 17.9816 24.0179 16.247 32.6461C10.4103 33.0987 5.81519 37.9783 5.81519 43.9311C5.81519 50.1825 10.883 55.2503 17.1344 55.2503H35.9998Z" fill="url(#paint3_linear_289_288274)"/>
<path d="M5.81519 43.931C5.81519 37.6796 10.883 32.6118 17.1344 32.6118H20.9075C29.2427 32.6118 35.9998 39.3689 35.9998 47.7041V55.2503H17.1344C10.883 55.2503 5.81519 50.1825 5.81519 43.931V43.931Z" fill="url(#paint4_radial_289_288274)"/>
<path d="M15.8765 36.3848C15.8765 25.9657 24.3228 17.5194 34.7418 17.5194V17.5194C45.1609 17.5194 53.6072 25.9657 53.6072 36.3848V36.3848C53.6072 46.8039 45.1609 55.2502 34.7418 55.2502V55.2502C24.3228 55.2502 15.8765 46.8039 15.8765 36.3848V36.3848Z" fill="url(#paint5_radial_289_288274)"/>
<circle cx="52.3497" cy="41.4154" r="13.8346" fill="url(#paint6_radial_289_288274)"/>
<defs>
<linearGradient id="paint0_linear_289_288274" x1="40.6406" y1="13.1406" x2="68.9981" y2="38.7134" gradientUnits="userSpaceOnUse">
<stop offset="0.162966" stop-color="#FFE975"/>
<stop offset="0.53915" stop-color="#FFB729"/>
<stop offset="0.742056" stop-color="#FF9900"/>
</linearGradient>
<linearGradient id="paint1_linear_289_288274" x1="60.7514" y1="39.3233" x2="44.2487" y2="10.7396" gradientUnits="userSpaceOnUse">
<stop stop-color="#E25A01"/>
<stop offset="1" stop-color="#FFD400"/>
</linearGradient>
<linearGradient id="paint2_linear_289_288274" x1="24.6806" y1="26.3233" x2="35.9998" y2="55.2502" gradientUnits="userSpaceOnUse">
<stop stop-color="#C7DBFF"/>
<stop offset="1" stop-color="#B5CBDF" stop-opacity="0"/>
</linearGradient>
<linearGradient id="paint3_linear_289_288274" x1="32.7296" y1="56.5854" x2="31.9365" y2="17.5194" gradientUnits="userSpaceOnUse">
<stop stop-color="#C3D0E7"/>
<stop offset="0.257422" stop-color="#D0E0EE" stop-opacity="0"/>
</linearGradient>
<radialGradient id="paint4_radial_289_288274" cx="0" cy="0" r="1" gradientUnits="userSpaceOnUse" gradientTransform="translate(22.1652 55.2503) rotate(-117.897) scale(24.1922 27.9968)">
<stop offset="0.629385" stop-color="#B8CDDF" stop-opacity="0"/>
<stop offset="1" stop-color="#95B0C7"/>
</radialGradient>
<radialGradient id="paint5_radial_289_288274" cx="0" cy="0" r="1" gradientUnits="userSpaceOnUse" gradientTransform="translate(34.7418 51.4771) rotate(-90) scale(33.9577)">
<stop offset="0.6875" stop-color="#B8CDDF" stop-opacity="0"/>
<stop offset="1" stop-color="#A0BCD3"/>
</radialGradient>
<radialGradient id="paint6_radial_289_288274" cx="0" cy="0" r="1" gradientUnits="userSpaceOnUse" gradientTransform="translate(44.9713 51.5608) rotate(-56.3099) scale(26.6034)">
<stop offset="0.382649" stop-color="#B8CDDF" stop-opacity="0"/>
<stop offset="1" stop-color="#A3B9CC"/>
</radialGradient>
</defs>
</svg>
